<svg width="25" height="30" viewBox="0 0 25 30" fill="none" xmlns="http://www.w3.org/2000/svg">
<path d="M17.0915 8.57143C17.0915 13.3053 13.2654 17.1429 8.54573 17.1429C3.82605 17.1429 0 13.3053 0 8.57143C0 3.83756 3.82605 0 8.54573 0C13.2654 0 17.0915 3.83756 17.0915 8.57143Z" fill="#B05190"/>
<path d="M24.7826 8.57143C24.7826 13.3053 20.9566 17.1429 16.2369 17.1429C11.5172 17.1429 7.69115 13.3053 7.69115 8.57143C7.69115 3.83756 11.5172 0 16.2369 0C20.9566 0 24.7826 3.83756 24.7826 8.57143Z" fill="#B05190"/>
<path d="M12.3913 30L0.641021 12L0 8.57143H24.7826L23.9281 12.2143L12.3913 30Z" fill="#B05190"/>
</svg>
